<?xml version="1.0" encoding="UTF-8" standalone="no"?>
<svg
   xmlns:dc="http://purl.org/dc/elements/1.1/"
   xmlns:cc="http://creativecommons.org/ns#"
   xmlns:rdf="http://www.w3.org/1999/02/22-rdf-syntax-ns#"
   xmlns:svg="http://www.w3.org/2000/svg"
   xmlns="http://www.w3.org/2000/svg"
   xmlns:sodipodi="http://sodipodi.sourceforge.net/DTD/sodipodi-0.dtd"
   xmlns:inkscape="http://www.inkscape.org/namespaces/inkscape"
   version="1.1"
   id="svg2"
   xml:space="preserve"
   width="312"
   height="240"
   viewBox="0 0 312 240"
   sodipodi:docname="Vert_Formal_Viterbi_GoldOnCard.eps"><metadata
     id="metadata8"><rdf:RDF><cc:Work
         rdf:about=""><dc:format>image/svg+xml</dc:format><dc:type
           rdf:resource="http://purl.org/dc/dcmitype/StillImage" /></cc:Work></rdf:RDF></metadata><defs
     id="defs6" /><sodipodi:namedview
     pagecolor="#ffffff"
     bordercolor="#666666"
     borderopacity="1"
     objecttolerance="10"
     gridtolerance="10"
     guidetolerance="10"
     inkscape:pageopacity="0"
     inkscape:pageshadow="2"
     inkscape:window-width="640"
     inkscape:window-height="480"
     id="namedview4" /><g
     id="g10"
     inkscape:groupmode="layer"
     inkscape:label="ink_ext_XXXXXX"
     transform="matrix(1.3333333,0,0,-1.3333333,0,240)"><g
       id="g12"
       transform="scale(0.1)"><path
         d="M 2340.87,0 H 2.05078 V 1804.8 H 2340.87 V 0"
         style="fill:#a31934;fill-opacity:1;fill-rule:nonzero;stroke:none"
         id="path14" /><path
         d="m 272.688,1006.48 c 0,2.96 0.554,4.13 4.109,4.13 5.848,0 25.234,-1.79 71.086,-1.77 49.297,0 75.711,1.77 80.984,1.77 5.254,0 5.879,-1.77 5.879,-4.13 v -13.492 c 0,-2.929 -0.625,-5.285 -4.687,-5.285 h -28.204 c -16.394,0 -24.66,-5.308 -24.648,-15.269 0,-4.692 0.598,-11.743 2.344,-19.993 3.554,-21.125 25.262,-90.996 35.859,-123.918 6.992,-22.285 41.133,-123.293 54.602,-159.113 h 1.187 c 12.309,27.578 58.149,148.57 62.832,162.082 5.879,15.844 28.157,83.403 36.977,109.238 4.695,14.653 8.25,25.247 8.25,33.458 -0.039,7.074 -4.153,13.527 -18.789,13.527 h -15.313 c -2.343,0 -2.937,1.758 -2.937,5.281 v 13.494 c 0,2.95 0.594,4.15 3.535,4.15 5.301,0 32.281,-1.78 69.312,-1.78 42.832,0 57.539,1.78 62.805,1.78 3.547,0 4.121,-1.18 4.121,-4.15 v -14.674 c 0,-2.312 -0.574,-4.101 -4.121,-4.101 h -15.808 c -19.418,0 -30.547,-9.387 -41.704,-22.91 -15.254,-18.809 -62.273,-139.168 -72.234,-163.86 -7.07,-19.375 -82.805,-206.105 -85.77,-211.996 -2.304,-4.687 -5.246,-7.64 -8.207,-7.64 -4.675,0 -7.031,5.882 -9.988,13.492 -18.75,54.051 -66.355,187.918 -73.992,209.094 l -5.844,19.945 c -14.097,41.707 -41.719,126.836 -49.344,144.48 -5.917,13.528 -11.789,19.348 -24.121,19.348 h -15.246 c -2.371,0 -2.925,1.797 -2.925,4.141 v 14.671"
         style="fill:#ffffff;fill-opacity:1;fill-rule:nonzero;stroke:none"
         id="path16" /><path
         d="m 641.023,763.961 c 0,19.98 -3.511,30.519 -32.847,35.25 -4.172,0.578 -5.317,1.766 -5.317,4.109 v 5.274 c 0,1.765 1.145,2.922 4.121,4.148 18.782,7.031 41.106,16.43 63.418,28.735 4.692,2.339 7.661,3.511 11.157,3.511 2.91,0 3.535,-2.925 2.91,-7.027 -1.152,-9.973 -1.152,-46.973 -1.106,-95.731 v -64.011 c 0,-22.891 0,-44.039 0.536,-50.508 1.195,-11.109 2.953,-15.27 9.406,-15.27 h 27.012 c 4.687,0 5.886,-1.761 5.886,-5.25 v -9.98 c 0,-4.102 -1.199,-5.879 -5.261,-5.879 -4.676,0 -31.75,1.777 -56.375,1.777 -34.114,-0.019 -56.985,-1.82 -63.45,-1.82 -2.937,0 -4.695,1.231 -4.695,4.731 v 11.71 c 0,3.559 1.758,4.711 5.879,4.711 h 28.758 c 6.457,0 8.84,2.36 9.433,11.758 0.567,17.602 0.567,35.821 0.567,53.442 l -0.032,86.32"
         style="fill:#ffffff;fill-opacity:1;fill-rule:nonzero;stroke:none"
         id="path18" /><path
         d="m 627.922,901.23 c 0,14.708 12.371,30.54 35.84,30.54 20.547,0.015 30.535,-15.825 30.535,-28.782 0,-15.234 -10.559,-32.285 -34.043,-32.285 -12.941,0 -32.332,11.731 -32.332,30.527"
         style="fill:#ffffff;fill-opacity:1;fill-rule:nonzero;stroke:none"
         id="path20" /><path
         d="m 1631.52,763.961 c 0,19.98 -3.52,30.519 -32.91,35.25 -4.08,0.578 -5.26,1.766 -5.26,4.109 v 5.274 c 0,1.765 1.18,2.922 4.16,4.148 18.75,7.031 41.04,16.43 63.38,28.735 4.69,2.339 7.65,3.511 11.16,3.511 2.94,0 3.57,-2.925 2.94,-7.027 -1.19,-9.973 -1.19,-46.973 -1.15,-95.731 v -64.011 c 0,-22.891 0,-44.039 0.56,-50.508 1.22,-11.109 2.93,-15.27 9.42,-15.27 h 27.02 c 4.7,0 5.85,-1.761 5.85,-5.25 v -9.98 c 0,-4.102 -1.15,-5.879 -5.26,-5.879 -4.7,0 -31.75,1.777 -56.39,1.777 -34.07,-0.019 -56.96,-1.82 -63.44,-1.82 -2.94,0 -4.71,1.231 -4.71,4.731 v 11.71 c 0,3.559 1.77,4.711 5.93,4.711 h 28.74 c 6.44,0 8.76,2.36 9.41,11.758 0.57,17.602 0.57,35.821 0.57,53.442 l -0.02,86.32"
         style="fill:#ffffff;fill-opacity:1;fill-rule:nonzero;stroke:none"
         id="path22" /><path
         d="m 1618.44,901.23 c 0,14.708 12.33,30.54 35.82,30.54 20.53,0.015 30.55,-15.825 30.55,-28.782 0,-15.234 -10.56,-32.285 -34.06,-32.285 -12.93,0 -32.31,11.731 -32.31,30.527"
         style="fill:#ffffff;fill-opacity:1;fill-rule:nonzero;stroke:none"
         id="path24" /><path
         d="m 813.684,666.48 c 0,-44.039 19.929,-51.691 30.546,-51.691 13.536,0 30.543,2.359 38.731,7.672 2.957,1.738 5.301,1.148 7.059,-1.191 l 2.96,-5.25 c 1.727,-2.348 0.575,-4.711 -1.234,-6.489 -5.828,-5.883 -29.93,-23.511 -65.152,-23.511 -28.789,0 -56.977,27.628 -56.977,49.921 0,24.098 1.809,75.797 1.809,84 v 12.911 c 0,10.589 0.527,49.91 1.152,74.582 H 736.73 c -5.285,0 -8.808,2.339 -8.808,7.07 0,4.684 3.523,6.441 10.555,10.547 14.121,8.211 59.328,54.019 66.984,74.004 1.719,4.683 4.684,5.855 8.223,5.855 4.683,0 5.879,-4.117 5.879,-8.805 l -2.981,-58.144 h 81.672 c 3.484,0 5.269,-2.934 4.07,-5.285 l -5.832,-20.52 c -0.633,-2.976 -1.785,-4.683 -5.308,-4.683 l -75.723,-0.039 c -1.215,-27.012 -1.777,-55.184 -1.777,-82.223 V 666.48"
         style="fill:#ffffff;fill-opacity:1;fill-rule:nonzero;stroke:none"
         id="path26" /><path
         d="m 957.527,749.301 c -1.187,-5.262 -1.773,-14.692 -1.773,-28.192 0,-57.558 36.441,-100.968 83.426,-100.968 35.81,0 61.04,20.539 71.04,39.918 1.18,2.339 3.52,3.511 5.3,2.929 l 7.6,-4.117 c 1.83,-0.57 2.95,-2.351 0,-8.789 -10.55,-23.523 -41.1,-64.031 -93.35,-64.031 -33.493,0 -70.461,9.969 -92.231,41.719 -20.535,29.929 -25.809,51.64 -25.809,92.761 0,22.91 5.86,62.231 36.954,93.387 25.254,25.801 54.636,31.121 84.006,31.121 67.53,0.012 86.32,-63.43 86.32,-86.34 0,-8.211 -7.03,-9.379 -16.44,-9.379 z m 93.373,17.621 c 11.15,0 15.82,2.93 15.82,8.207 0,13.543 -7.01,52.273 -45.2,52.273 -25.829,0 -50.465,-17.05 -61.657,-60.504 l 91.037,0.024"
         style="fill:#ffffff;fill-opacity:1;fill-rule:nonzero;stroke:none"
         id="path28" /><path
         d="m 1185.34,749.32 c 0,29.95 -4.71,35.828 -21.12,44.629 l -11.18,5.852 c -3.5,1.183 -4.7,1.769 -4.7,4.152 v 3.52 c 0,2.34 1.2,3.472 4.7,5.269 l 58.14,29.946 c 3.52,1.765 5.86,2.363 8.2,2.363 3.55,0 4.13,-3.528 4.13,-7.055 l 2.91,-40.535 h 2.38 c 17.6,27.019 45.22,51.102 70.49,51.102 19.96,0 29.91,-12.301 29.91,-25.836 0,-17.012 -14.09,-28.766 -24.67,-28.766 -6.4,0 -12.27,2.34 -17,4.68 -4.69,2.929 -11.76,4.687 -19.39,4.687 -9.4,0 -24.65,-5.867 -34.65,-24.668 -3.5,-6.398 -5.87,-17.031 -5.84,-18.789 V 636.559 c 0,-18.18 4.12,-24.059 16.43,-24.059 h 27.61 c 3.53,0 4.12,-1.781 4.12,-5.289 v -10.59 c 0,-3.512 -0.59,-5.289 -2.93,-5.289 -3.54,0 -30.55,1.777 -62.28,1.777 -36.38,0 -61.06,-1.777 -64.59,-1.777 -2.35,0 -3.5,1.188 -3.5,5.898 v 9.981 c 0,4.121 1.15,5.289 6.46,5.289 h 22.86 c 8.82,0 12.95,3.52 12.95,11.129 0.56,19.402 0.56,39.941 0.56,70.492 v 55.199"
         style="fill:#ffffff;fill-opacity:1;fill-rule:nonzero;stroke:none"
         id="path30" /><path
         d="m 1353.27,909.656 c 0,39.336 -6.47,47.578 -27.62,54.621 l -5.86,1.758 c -6.45,1.77 -7.6,2.93 -7.6,4.695 v 4.692 c 0,1.773 1.15,2.93 4.69,4.683 17.01,7.661 47.56,22.915 62.25,32.305 4.1,2.97 8.79,5.32 12.29,5.32 4.1,0 5.29,-2.97 4.71,-10.03 -0.61,-4.68 -0.57,-71.614 -0.57,-123.884 v -68.14 c 18.79,18.219 52.25,29.375 81.03,29.375 51.68,0.015 107.5,-41.684 107.5,-125.641 0,-68.73 -55.19,-133.32 -122.19,-133.32 -32.84,0 -55.79,7.031 -69.25,15.262 l -23.52,-12.93 c -2.3,-1.781 -4.1,-2.352 -7.66,-1.781 l -7.03,1.781 c -2.3,0.558 -2.96,1.758 -2.3,4.699 1.16,8.231 1.16,56.961 1.16,99.809 z m 42.31,-190.265 c 0,-48.77 1.78,-66.36 8.81,-85.153 5.85,-14.097 30.55,-29.359 55.77,-29.359 35.24,0 78.71,24.051 78.71,101 0,56.961 -29.97,110.976 -87.48,110.976 -21.8,0 -42.93,-7.617 -55.83,-21.156 l 0.02,-76.308"
         style="fill:#ffffff;fill-opacity:1;fill-rule:nonzero;stroke:none"
         id="path32" /><path
         d="m 310.242,1466.13 c 0,20.22 -4.762,29.71 -20.222,29.71 h -27.356 c -3.57,0 -4.754,1.22 -4.754,5.38 v 13.7 c 0,3.53 1.184,4.71 5.906,4.71 5.989,0 34.497,-1.77 91.575,-1.77 49.914,0 78.488,1.77 85.617,1.77 3.555,0 4.746,-1.18 4.746,-4.12 v -14.88 c 0,-3.57 -1.191,-4.79 -4.746,-4.79 h -24.961 c -17.863,0 -28.535,-10.64 -29.16,-23.14 -0.571,-7.13 -1.758,-42.82 -1.758,-77.3 v -73.72 c 0,-29.71 0.555,-71.92 1.758,-90.93 1.812,-27.34 6.551,-54.69 20.801,-73.69 20.21,-27.33 52.3,-36.85 80.847,-36.85 27.371,0 60.653,10.66 79.656,28.51 22.602,22.58 34.504,57.07 34.504,100.49 v 106.99 c 0,47.51 -4.757,99.84 -6.55,113.53 -1.797,15.47 -11.309,26.11 -24.387,26.11 h -21.375 c -3.574,0 -4.77,1.82 -4.77,4.21 v 14.87 c 0,3.53 1.196,4.71 4.77,4.71 5.945,0 33.269,-1.77 72.527,-1.77 36.836,0 55.852,1.77 60.606,1.77 5.351,0 5.964,-1.77 5.964,-4.71 v -13.7 c 0,-3.56 -0.613,-5.38 -3.582,-5.38 h -21.386 c -21.375,0 -23.809,-16.6 -24.981,-23.14 -1.164,-7.13 -1.164,-90.38 -1.164,-98.1 0,-8.31 -1.187,-111.74 -3.582,-135.51 -3.562,-48.77 -17.844,-85.62 -49.949,-114.14 -24.973,-22.57 -62.961,-36.88 -108.188,-36.88 -28.535,0 -62.988,4.77 -85.585,14.31 -34.461,14.25 -58.231,41.6 -70.165,79.66 -8.32,26.11 -10.656,65.35 -10.656,143.23 v 140.86"
         style="fill:#fbbf16;fill-opacity:1;fill-rule:nonzero;stroke:none"
         id="path34" /><path
         d="m 706.152,1229.58 c 2.356,0 3.536,-1.21 3.536,-4.77 1.203,-19.02 5.957,-41.62 22.609,-67.77 17.808,-28.53 48.738,-42.77 78.473,-42.77 32.101,0 77.289,20.19 77.289,69.55 0,54.69 -24.985,72.5 -87.993,96.26 -19.031,7.15 -58.257,23.79 -86.812,49.93 -20.195,19.03 -29.691,48.75 -29.691,85.03 0,33.28 13.07,60.62 41.593,83.2 23.797,20.22 49.934,28.56 84.414,28.56 39.231,0 62.996,-9.53 74.883,-14.28 5.977,-2.38 9.5,-1.21 12.488,1.78 l 7.747,7.73 c 2.382,2.38 4.746,3.56 8.292,3.56 3.59,0 4.774,-3.56 4.774,-9.54 0,-9.49 9.512,-92.71 9.512,-98.63 0,-2.38 -1.192,-3.57 -3.567,-4.2 l -9.527,-2.94 c -2.356,-0.59 -4.738,0 -5.91,3.57 -5.949,16.64 -15.457,40.39 -36.883,63.01 -15.441,16.62 -34.477,24.96 -61.809,24.96 -47.558,0 -66.574,-38.05 -66.574,-60.06 0,-20.22 2.375,-38.03 16.645,-53.48 15.449,-15.45 48.757,-29.73 72.507,-36.87 34.485,-10.67 63.04,-22.58 85.606,-46.37 19.031,-20.2 29.734,-45.15 29.734,-84.97 0,-72.52 -47.554,-131.97 -126.035,-131.97 -48.75,0 -77.254,10.68 -101.043,28.55 -7.156,4.74 -10.722,7.11 -14.258,7.11 -3.586,0 -5.957,-4.74 -9.519,-10.7 -3.574,-5.94 -5.957,-7.15 -10.695,-7.15 -4.754,0 -7.149,3.61 -7.149,9.53 1.191,7.13 9.524,103.44 10.676,110.57 0.586,3.57 1.211,4.76 3.594,4.76 l 13.093,-1.19"
         style="fill:#fbbf16;fill-opacity:1;fill-rule:nonzero;stroke:none"
         id="path36" /><path
         d="m 1354.08,1193.89 c 1.78,-1.75 2.37,-3.55 1.19,-5.91 -35.67,-51.16 -92.74,-99.88 -177.14,-99.88 -76.07,0 -118.9,22.59 -155.72,55.88 -44.031,39.25 -64.234,108.18 -64.234,160.49 0,58.24 19.019,114.14 60.644,159.3 32.1,34.47 83.24,63.01 154.52,63.01 54.71,0 98.7,-16.64 120.1,-28.54 8.35,-4.76 10.72,-4.76 11.88,0 l 4.76,15.46 c 1.2,3.57 2.37,3.57 9.52,3.57 7.14,0 8.31,-1.18 8.31,-9.52 0,-10.69 11.9,-105.8 14.28,-123.63 0.55,-3.57 0,-5.35 -2.38,-5.94 l -11.27,-3.57 c -3,-1.19 -4.78,1.17 -6.55,5.94 -7.15,21.4 -21.43,51.12 -46.38,77.26 -26.15,24.98 -57.08,44 -103.41,44 -95.12,0 -134.38,-85.6 -134.38,-171.2 0,-36.86 10.72,-106.98 54.73,-154.55 39.21,-41.6 73.69,-46.36 102.24,-46.36 65.38,0 117.09,32.71 142.07,68.94 2.95,4.18 5.33,5.96 7.11,4.18 l 10.11,-8.93"
         style="fill:#fbbf16;fill-opacity:1;fill-rule:nonzero;stroke:none"
         id="path38" /><path
         d="m 350.129,300.531 c -2.27,1.707 -3.418,2.27 -4.359,2.27 -1.153,0 -1.915,-1.332 -3.043,-3.223 -1.133,-2.09 -2.09,-2.289 -3.418,-2.289 -1.157,0 -2.09,0.961 -1.719,3.051 0.762,4.75 2.652,28.871 3.238,34.379 0.18,1.14 0.567,1.14 1.328,1.14 l 2.856,-0.187 c 0.758,0 1.133,-0.391 1.133,-1.524 0.195,-6.07 0.566,-12.339 6.835,-22.027 5.704,-8.941 16.153,-14.062 26.598,-14.062 11.391,0 25.844,7.031 25.844,24.121 0,19.57 -14.067,26.789 -29.262,32.109 -5.894,2.09 -19.566,6.832 -27.73,15.391 -6.274,6.269 -9.512,15.191 -9.512,27.73 0,9.488 5.895,18.809 11.773,24.32 6.86,6.461 16.352,9.122 26.606,9.122 10.84,0 19.195,-3.231 22.422,-4.75 1.699,-0.954 2.652,-0.762 3.609,0.179 l 2.465,2.278 c 0.953,0.769 1.52,1.152 2.477,1.152 0.941,0 1.503,-1.52 1.503,-3.242 0,-6.637 2.485,-26.02 2.676,-30.199 0,-0.95 -0.191,-1.329 -0.957,-1.508 l -2.281,-0.582 c -0.566,-0.192 -0.941,0 -1.137,0.582 -1.519,5.5 -3.98,12.91 -11.773,21.078 -5.141,5.512 -11.781,8.172 -20.703,8.172 -16.914,0 -22.993,-12.543 -22.993,-22.223 0,-5.328 1.133,-11.598 5.879,-16.539 5.508,-5.512 16.157,-9.68 21.661,-11.391 13.109,-4.179 23.75,-7.41 30.585,-15.769 4.946,-5.891 8.364,-13.301 8.364,-25.828 0,-22.43 -13.672,-41.621 -38.75,-41.621 -13.301,0 -22.617,4 -30.215,9.89"
         style="fill:#ffffff;fill-opacity:1;fill-rule:nonzero;stroke:none"
         id="path40" /><path
         d="m 444.578,339.461 c 0,-10.25 4.555,-21.832 9.692,-28.859 6.265,-8.172 14.253,-9.692 20.703,-9.692 9.507,0 14.453,2.09 20.894,8.16 0.395,0.379 0.957,0.571 1.528,0 l 1.89,-1.89 c 0.766,-0.758 0.957,-1.328 0,-2.481 -5.508,-6.258 -17.652,-13.48 -30.586,-13.48 -10.054,0 -20.703,2.281 -29.429,13.301 -7.036,9.3 -8.555,17.289 -8.555,25.832 0,22.226 15.586,44.636 40.64,44.636 19.766,0 25.84,-11.398 25.84,-15.386 -0.175,-4.364 -3.023,-6.641 -7.027,-6.641 -4.355,0 -7.602,2.461 -10.449,7.598 -4.184,7.793 -8.164,8.363 -12.715,8.363 -10.844,0 -22.426,-9.891 -22.426,-29.461"
         style="fill:#ffffff;fill-opacity:1;fill-rule:nonzero;stroke:none"
         id="path42" /><path
         d="m 519.48,397.031 c 0,11.59 -2.285,13.68 -9.121,15.957 l -3.218,1.141 c -1.157,0.371 -1.328,0.57 -1.328,1.133 v 1.718 c 0,0.758 0.566,0.95 2.261,1.899 l 19.77,10.449 c 1.519,0.762 2.847,1.524 4.375,1.524 1.133,0 1.89,-1.524 1.519,-4.75 -0.386,-3.243 -0.586,-41.793 -0.586,-51.301 v -12.153 h 0.957 c 6.645,7.973 17.676,12.34 26.036,12.34 7.968,0 13.476,-2.457 18.793,-7.597 8.55,-7.981 8.179,-17.661 8.179,-27.93 v -10.82 c 0,-10.641 0.371,-22.422 0.371,-26.02 0,-2.281 3.047,-2.851 7.032,-2.851 h 3.222 c 1.528,0 2.094,-0.391 2.094,-1.711 v -2.848 c 0,-1.531 -0.371,-2.289 -1.508,-2.289 -1.324,0 -7.422,0.578 -18.238,0.578 -9.32,0 -16.152,-0.578 -17.856,-0.578 -1.343,0 -1.714,0.578 -1.714,2.09 v 3.238 c 0,0.941 0.195,1.52 1.328,1.52 h 4.375 c 3.218,0 7.031,0.378 7.207,3.601 0.191,2.668 0,12.731 0,18.809 v 15.39 c 0,10.641 -0.742,18.239 -6.274,23.371 -3.789,3.598 -7.769,5.321 -12.539,5.321 -5.508,0 -12.344,-1.903 -17.652,-7.992 -1.723,-2.09 -3.813,-5.879 -3.813,-9.301 v -41.418 c 0,-6.082 0.586,-7.781 4.184,-7.781 h 5.699 c 1.328,0 2.094,-0.391 2.094,-1.52 v -3.238 c 0,-1.332 -0.371,-2.09 -1.524,-2.09 -1.503,0 -9.296,0.578 -18.046,0.578 -9.496,0 -16.719,-0.578 -18.418,-0.578 -0.762,0 -1.328,0.578 -1.328,1.898 v 3.43 c 0,1.328 0.757,1.52 2.847,1.52 h 3.985 c 3.046,0 5.878,0.761 6.273,3.031 0.562,3.621 0.562,24.508 0.562,36.859 v 57.371"
         style="fill:#ffffff;fill-opacity:1;fill-rule:nonzero;stroke:none"
         id="path44" /><path
         d="m 675.266,334.91 c 0,21.09 -15.371,34.391 -25.063,34.391 -5.137,0 -10.074,-1.153 -14.629,-6.09 -7.422,-7.59 -10.078,-15.391 -10.078,-29.82 0,-10.641 1.137,-17.852 7.231,-26.602 4.351,-6.258 9.878,-9.879 18.804,-9.879 14.438,0 23.735,17.668 23.735,38 z m -54.883,-30.582 c -8.75,10.453 -10.449,17.481 -10.449,30.953 0,9.699 5.117,21.86 16.328,30.59 9.883,7.609 19.176,9.117 25.449,9.117 10.445,0 20.894,-5.308 26.602,-11.019 8.55,-8.731 12.925,-18.61 12.925,-30.957 0,-20.711 -18.633,-41.793 -41.992,-41.793 -9.117,0 -20.894,3.601 -28.863,13.109"
         style="fill:#ffffff;fill-opacity:1;fill-rule:nonzero;stroke:none"
         id="path46" /><path
         d="m 769.895,334.91 c 0,21.09 -15.391,34.391 -25.082,34.391 -5.133,0 -10.079,-1.153 -14.625,-6.09 -7.407,-7.59 -10.083,-15.391 -10.083,-29.82 0,-10.641 1.157,-17.852 7.231,-26.602 4.375,-6.258 9.883,-9.879 18.809,-9.879 14.429,0 23.75,17.668 23.75,38 z m -54.907,-30.582 c -8.75,10.453 -10.445,17.481 -10.445,30.953 0,9.699 5.113,21.86 16.324,30.59 9.887,7.609 19.199,9.117 25.473,9.117 10.445,0 20.894,-5.308 26.582,-11.019 8.555,-8.731 12.93,-18.61 12.93,-30.957 0,-20.711 -18.618,-41.793 -41.997,-41.793 -9.121,0 -20.894,3.601 -28.867,13.109"
         style="fill:#ffffff;fill-opacity:1;fill-rule:nonzero;stroke:none"
         id="path48" /><path
         d="m 824.426,350.109 c 0,-9.89 0,-38.57 0.191,-44.461 0.18,-3.218 0.942,-5.878 4.946,-5.878 h 8.535 c 1.715,0 2.09,-0.579 2.09,-1.711 v -3.239 c 0,-1.14 -0.375,-1.898 -1.133,-1.898 -1.328,0 -9.692,0.578 -21.465,0.578 -12.168,0 -19.77,-0.578 -21.469,-0.578 -0.953,0 -1.324,0.758 -1.324,1.898 v 3.239 c 0,1.32 0.371,1.711 2.461,1.711 h 9.121 c 2.09,0 3.98,1.32 4.18,4.75 0.195,5.878 0.195,38.558 0.195,49.57 v 11.969 c 0,13.5 -0.195,30.793 -0.586,35.73 -0.371,6.441 -3.422,9.492 -9.492,11.383 l -3.789,1.328 c -0.957,0.391 -1.157,0.578 -1.157,0.961 v 1.519 c 0,0.571 0.571,0.95 1.719,1.329 6.645,3.043 15.196,6.461 22.231,11.019 1.699,1.133 2.847,1.524 3.98,1.524 1.328,0 1.723,-0.961 1.528,-3.422 -0.2,-10.45 -0.762,-49.961 -0.762,-60.41 v -16.911"
         style="fill:#ffffff;fill-opacity:1;fill-rule:nonzero;stroke:none"
         id="path50" /><path
         d="m 953.801,334.91 c 0,21.09 -15.371,34.391 -25.063,34.391 -5.133,0 -10.078,-1.153 -14.629,-6.09 -7.421,-7.59 -10.078,-15.391 -10.078,-29.82 0,-10.641 1.137,-17.852 7.231,-26.602 4.351,-6.258 9.883,-9.879 18.804,-9.879 14.438,0 23.735,17.668 23.735,38 z m -54.883,-30.582 c -8.75,10.453 -10.449,17.481 -10.449,30.953 0,9.699 5.117,21.86 16.328,30.59 9.883,7.609 19.18,9.117 25.445,9.117 10.449,0 20.903,-5.308 26.606,-11.019 8.55,-8.731 12.925,-18.61 12.925,-30.957 0,-20.711 -18.628,-41.793 -41.992,-41.793 -9.121,0 -20.894,3.601 -28.863,13.109"
         style="fill:#ffffff;fill-opacity:1;fill-rule:nonzero;stroke:none"
         id="path52" /><path
         d="m 996.746,363.59 h -13.101 c -0.957,0 -1.332,0.379 -0.957,2.09 l 0.757,5.711 c 0.2,1.14 0.766,1.32 2.285,1.32 h 11.016 v 3.609 c 0,18.809 5.314,31.16 12.734,39.52 10.06,11.019 20.51,15.012 31.15,15.012 8.93,0 17.29,-3.422 17.29,-10.641 0,-4.563 -4.94,-8.172 -7.97,-8.172 -1.91,0 -3.81,0.371 -5.33,1.133 -1.7,0.957 -3.79,3.418 -4.55,4.379 -2.48,3.039 -5.14,4.371 -8.75,4.371 -4.94,0 -10.06,-1.332 -14.24,-6.66 -7.03,-8.922 -6.66,-25.453 -6.66,-38.75 v -3.801 h 22.99 c 1.33,0 1.52,-1.141 1.33,-1.902 l -0.94,-6.27 c -0.2,-0.758 -0.96,-0.949 -2.48,-0.949 h -20.9 v -16.899 c 0,-22.421 0,-39.902 0.2,-41.992 0.39,-3.23 0.95,-4.929 4.94,-4.929 h 10.82 c 1.72,0 2.09,-0.391 2.09,-1.52 v -3.039 c 0,-1.531 -0.37,-2.289 -1.33,-2.289 -1.13,0 -8.17,0.578 -22.79,0.578 -10.455,0 -20.139,-0.578 -21.662,-0.578 -1.133,0 -1.504,0.387 -1.504,1.34 v 4.179 c 0,0.938 0.371,1.329 1.89,1.329 h 9.121 c 3.598,0 4.36,2.269 4.551,6.652 v 35.707 21.461"
         style="fill:#ffffff;fill-opacity:1;fill-rule:nonzero;stroke:none"
         id="path54" /><path
         d="m 1128.8,366.262 c 1.52,0 21.83,0.758 24.12,1.129 5.51,0.961 7.03,2.468 8.73,8.359 0.59,1.898 1.35,5.711 1.52,9.32 0,0.942 0.57,1.328 1.33,1.328 l 4.77,-0.199 c 0.94,0 1.33,-0.758 1.13,-1.519 -0.57,-3.219 -0.57,-18.809 -0.57,-21.649 0,-6.652 0.77,-15.769 1.14,-19.761 0,-0.961 -0.37,-1.329 -1.14,-1.52 l -4.18,-0.57 c -0.95,-0.192 -1.32,0.371 -1.52,1.711 -0.39,2.468 -1.52,6.839 -2.09,8.929 -1.13,3.989 -3.22,6.84 -8.16,7.41 -8.93,0.95 -22.05,0.95 -25.08,0.95 v -11.782 c 0,-10.269 0.37,-28.679 0.37,-32.488 0.2,-9.871 4.94,-13.672 10.84,-14.82 3.79,-0.75 9.3,-1.32 14.04,-1.32 3.24,0 12.74,0.179 16.72,0.57 3.24,0.371 11.6,2.461 16.54,6.64 2.27,1.899 12.91,15.59 15.57,19.95 0.57,0.949 1.15,1.711 2.29,1.148 l 3.02,-1.719 c 0.96,-0.57 0.96,-1.14 0.39,-2.66 l -10.07,-27.929 c -0.57,-1.7 -1.9,-2.848 -4.18,-2.848 -0.94,0 -5.12,0.199 -16.53,0.387 -11.38,0 -29.82,0.191 -59.45,0.191 -7.03,0 -12.34,-0.191 -16.15,-0.191 -3.99,-0.188 -6.47,-0.387 -8.17,-0.387 -1.15,0 -1.72,0.387 -1.72,1.34 v 5.117 c 0,0.769 0.57,0.961 1.92,0.961 h 7.6 c 8.73,0 9.49,1.332 9.49,8.351 v 45.028 18.613 c 0,15.77 -0.39,39.52 -0.57,41.418 -0.76,6.082 -2.65,7.41 -9.69,7.41 h -6.83 c -0.96,0 -1.52,0.192 -1.52,1.328 v 5.133 c 0,0.57 0.37,0.938 1.32,0.938 4.18,0 10.82,-0.559 23.36,-0.559 h 8.36 c 18.81,0 37.62,0.191 56.43,0.191 3.04,0 6.64,0.368 7.6,0.368 0.95,0 1.32,-0.368 1.52,-0.938 0.76,-2.672 9.12,-28.68 9.69,-30.59 0.19,-0.761 0.19,-1.332 -0.57,-1.711 l -2.85,-1.519 c -0.57,-0.371 -1.33,0.187 -1.53,0.57 -0.37,0.758 -14.43,18.801 -19,21.66 -3.98,2.649 -9.3,4.938 -14.43,5.129 l -33.81,0.762 v -55.66"
         style="fill:#ffffff;fill-opacity:1;fill-rule:nonzero;stroke:none"
         id="path56" /><path
         d="m 1289.78,303.762 c 0,-3.051 1.69,-3.992 4.18,-3.992 h 6.07 c 1.72,0 2.09,-0.579 2.09,-1.711 v -3.047 c 0,-1.332 -0.37,-2.09 -1.52,-2.09 -1.33,0 -7.21,0.578 -18.05,0.578 -9.69,0 -15.76,-0.578 -17.09,-0.578 -1.13,0 -1.52,0.578 -1.52,2.09 v 3.047 c 0,1.32 0.56,1.711 2.48,1.711 h 5.5 c 2.09,0 3.6,0.941 3.79,4.359 0.2,4.941 0.39,11.019 0.39,15.961 v 25.082 c 0,7.59 0,13.098 -5.52,17.098 -4.55,3.41 -9.11,3.41 -13.87,3.41 -3.03,0 -9.69,-1.321 -15.37,-7.41 -3.81,-4.18 -4.38,-9.301 -4.38,-12.911 v -39.32 c 0,-5.129 0.57,-6.269 4.55,-6.269 h 4.75 c 1.52,0 1.91,-0.579 1.91,-1.911 v -3.218 c 0,-1.141 -0.39,-1.719 -1.32,-1.719 -1.33,0 -6.47,0.578 -16.55,0.578 -9.68,0 -15.76,-0.578 -16.89,-0.578 -0.96,0 -1.33,0.578 -1.33,1.719 v 3.418 c 0,1.132 0.37,1.711 1.89,1.711 h 5.51 c 2.46,0 3.81,0.57 3.81,3.789 v 44.461 c 0,5.699 -3.05,8.921 -7.79,11.21 l -1.53,0.758 c -1.32,0.571 -1.52,1.133 -1.52,1.703 v 0.957 c 0,0.942 0.76,1.524 1.72,1.891 l 16.33,9.121 c 1.52,0.762 2.65,1.328 3.42,1.328 0.95,0 1.32,-0.758 1.52,-2.277 l 1.33,-11.59 h 0.39 c 5.51,6.84 16.52,13.867 26.01,13.867 5.71,0 11.59,-1.129 16.16,-4.179 5.7,-3.789 10.45,-13.297 10.45,-18.047 v -49"
         style="fill:#ffffff;fill-opacity:1;fill-rule:nonzero;stroke:none"
         id="path58" /><path
         d="m 1363.12,348.398 c 0,8.364 -1.7,13.293 -5.14,17.102 -2.46,2.461 -6.27,4.18 -9.1,4.18 -4.38,0 -8.95,-0.758 -13.5,-5.321 -6.07,-6.461 -6.84,-15.199 -6.84,-22.418 0,-6.461 2.09,-12.351 6.08,-16.531 3.42,-3.23 6.84,-4.75 11.41,-4.75 12.91,0 17.09,15.781 17.09,27.738 z m 17.67,-80.929 c 0,11.211 -8.55,19.761 -27.56,18.429 l -18.22,-1.339 c -5.9,-1.508 -15.22,-7.969 -15.22,-18.231 0,-4.746 3.62,-10.437 7.43,-13.109 6.27,-4.36 13.1,-5.321 26.58,-5.321 7.03,0 27.93,4.942 26.99,19.571 z m -62.69,-19.571 c -6.84,4.18 -9.69,9.122 -9.69,15.391 0,10.652 10.82,18.813 19.94,22.793 v 0.77 c -7.97,1.699 -12.73,7.589 -12.73,13.296 0,9.122 10.44,15.571 17.1,18.043 v 0.379 c -7.42,3.239 -17.67,11.969 -17.67,28.879 0,12.34 11.01,27.539 32.48,27.539 14.45,0 22.05,-8.726 23.94,-11.019 5.14,3.621 11.59,7.422 17.86,7.422 6.27,0 9.31,-4.18 8.92,-7.981 0,-3.621 -3.03,-7.031 -7.4,-7.031 -3.22,0 -5.12,1.519 -6.64,2.851 -1.15,0.758 -2.48,1.711 -4,1.711 -1.33,0 -3.6,0 -6.08,-1.152 1.52,-3.789 2.85,-7.969 2.85,-14.43 0,-7.41 -2.09,-14.629 -7.03,-20.519 -4.94,-5.512 -15.76,-9.5 -22.03,-9.5 -4.18,0 -6.84,0.199 -9.69,0.961 -3.81,-1.52 -10.08,-5.332 -10.08,-10.653 0,-7.789 9.52,-7.207 22.23,-6.457 15.59,0.758 25.08,-0.941 32.68,-6.839 8.18,-6.071 9.12,-13.672 9.31,-18.231 0,-8.93 -3.22,-16.34 -12.73,-23.371 -4.94,-3.609 -16.33,-8.922 -32.48,-8.922 -9.12,0 -19.94,0.942 -29.06,6.07"
         style="fill:#ffffff;fill-opacity:1;fill-rule:nonzero;stroke:none"
         id="path60" /><path
         d="m 1408.72,406.719 c 0,4.75 3.99,9.871 11.58,9.871 6.66,0 9.89,-5.121 9.89,-9.301 0,-4.937 -3.42,-10.437 -11.02,-10.437 -4.18,0 -10.45,3.777 -10.45,9.867 z m 8.56,-57.938 c 0,6.457 -1.16,9.879 -10.65,11.399 -1.33,0.179 -1.7,0.57 -1.7,1.32 v 1.711 c 0,0.57 0.37,0.961 1.33,1.328 6.07,2.289 13.28,5.32 20.51,9.32 1.52,0.762 2.48,1.129 3.61,1.129 0.96,0 1.13,-0.949 0.96,-2.277 -0.39,-3.231 -0.39,-15.199 -0.39,-30.961 v -20.711 c 0,-7.41 0,-14.25 0.19,-16.34 0.37,-3.609 0.94,-4.929 3.03,-4.929 h 8.75 c 1.52,0 1.89,-0.579 1.89,-1.711 v -3.239 c 0,-1.32 -0.37,-1.898 -1.69,-1.898 -1.53,0 -10.28,0.578 -18.25,0.578 -11.01,0 -18.43,-0.578 -20.52,-0.578 -0.94,0 -1.51,0.387 -1.51,1.519 v 3.809 c 0,1.129 0.57,1.52 1.9,1.52 h 9.29 c 2.09,0 2.85,0.761 3.05,3.789 0.2,5.711 0.2,11.589 0.2,17.293 v 27.929"
         style="fill:#ffffff;fill-opacity:1;fill-rule:nonzero;stroke:none"
         id="path62" /><path
         d="m 1533.72,303.762 c 0,-3.051 1.72,-3.992 4.18,-3.992 h 6.09 c 1.7,0 2.09,-0.579 2.09,-1.711 v -3.047 c 0,-1.332 -0.39,-2.09 -1.52,-2.09 -1.33,0 -7.23,0.578 -18.05,0.578 -9.68,0 -15.78,-0.578 -17.11,-0.578 -1.13,0 -1.5,0.578 -1.5,2.09 v 3.047 c 0,1.32 0.57,1.711 2.46,1.711 h 5.51 c 2.09,0 3.61,0.941 3.81,4.359 0.17,4.941 0.37,11.019 0.37,15.961 v 25.082 c 0,7.59 0,13.098 -5.51,17.098 -4.55,3.41 -9.12,3.41 -13.87,3.41 -3.04,0 -9.68,-1.321 -15.39,-7.41 -3.79,-4.18 -4.37,-9.301 -4.37,-12.911 v -39.32 c 0,-5.129 0.58,-6.269 4.57,-6.269 h 4.74 c 1.53,0 1.9,-0.579 1.9,-1.911 v -3.218 c 0,-1.141 -0.37,-1.719 -1.33,-1.719 -1.33,0 -6.46,0.578 -16.52,0.578 -9.69,0 -15.76,-0.578 -16.92,-0.578 -0.93,0 -1.32,0.578 -1.32,1.719 v 3.418 c 0,1.132 0.39,1.711 1.89,1.711 h 5.53 c 2.46,0 3.79,0.57 3.79,3.789 v 44.461 c 0,5.699 -3.05,8.921 -7.8,11.21 l -1.52,0.758 c -1.33,0.571 -1.5,1.133 -1.5,1.703 v 0.957 c 0,0.942 0.76,1.524 1.7,1.891 l 16.34,9.121 c 1.53,0.762 2.66,1.328 3.42,1.328 0.94,0 1.33,-0.758 1.52,-2.277 l 1.33,-11.59 h 0.37 c 5.51,6.84 16.53,13.867 26.04,13.867 5.68,0 11.58,-1.129 16.13,-4.179 5.7,-3.789 10.45,-13.297 10.45,-18.047 v -49"
         style="fill:#ffffff;fill-opacity:1;fill-rule:nonzero;stroke:none"
         id="path64" /><path
         d="m 1601.75,349.73 c 3.61,0 5.13,0.942 5.13,2.661 0,4.371 -2.28,16.91 -14.62,16.91 -8.36,0 -16.35,-5.52 -19.95,-19.571 z m -30.2,-5.699 c -0.39,-1.722 -0.56,-4.75 -0.56,-9.121 0,-18.609 11.77,-32.672 26.97,-32.672 11.58,0 19.75,6.641 22.99,12.91 0.37,0.762 1.13,1.153 1.7,0.954 l 2.48,-1.321 c 0.56,-0.203 0.93,-0.769 0,-2.859 -3.44,-7.594 -13.3,-20.703 -30.22,-20.703 -10.82,0 -22.79,3.222 -29.82,13.48 -6.64,9.692 -8.36,16.723 -8.36,30.02 0,7.41 1.89,20.133 11.97,30.211 8.17,8.359 17.66,10.058 27.17,10.058 21.84,0 27.91,-20.508 27.91,-27.918 0,-2.672 -2.27,-3.039 -5.31,-3.039 h -46.92"
         style="fill:#ffffff;fill-opacity:1;fill-rule:nonzero;stroke:none"
         id="path66" /><path
         d="m 1682.69,349.73 c 3.61,0 5.13,0.942 5.13,2.661 0,4.371 -2.28,16.91 -14.63,16.91 -8.36,0 -16.32,-5.52 -19.94,-19.571 z m -30.2,-5.699 c -0.39,-1.722 -0.57,-4.75 -0.57,-9.121 0,-18.609 11.78,-32.672 26.98,-32.672 11.58,0 19.74,6.641 22.98,12.91 0.38,0.762 1.14,1.153 1.7,0.954 l 2.48,-1.321 c 0.57,-0.203 0.94,-0.769 0,-2.859 -3.41,-7.594 -13.3,-20.703 -30.21,-20.703 -10.82,0 -22.79,3.222 -29.82,13.48 -6.65,9.692 -8.36,16.723 -8.36,30.02 0,7.41 1.91,20.133 11.97,30.211 8.16,8.359 17.67,10.058 27.17,10.058 21.83,0 27.93,-20.508 27.93,-27.918 0,-2.672 -2.29,-3.039 -5.34,-3.039 h -46.91"
         style="fill:#ffffff;fill-opacity:1;fill-rule:nonzero;stroke:none"
         id="path68" /><path
         d="m 1730.01,344.031 c 0,9.688 -1.52,11.59 -6.84,14.438 l -3.61,1.89 c -1.13,0.391 -1.52,0.582 -1.52,1.332 v 1.149 c 0,0.75 0.39,1.129 1.52,1.699 l 18.81,9.691 c 1.13,0.571 1.89,0.758 2.66,0.758 1.13,0 1.32,-1.129 1.32,-2.277 l 0.96,-13.109 h 0.76 c 5.69,8.75 14.63,16.527 22.8,16.527 6.46,0 9.68,-3.988 9.68,-8.359 0,-5.5 -4.57,-9.301 -7.99,-9.301 -2.09,0 -3.98,0.761 -5.5,1.519 -1.53,0.953 -3.79,1.512 -6.27,1.512 -3.03,0 -7.97,-1.898 -11.21,-7.969 -1.14,-2.09 -1.9,-5.511 -1.9,-6.082 v -39.898 c 0,-5.879 1.33,-7.781 5.33,-7.781 h 8.93 c 1.13,0 1.33,-0.579 1.33,-1.711 v -3.418 c 0,-1.141 -0.2,-1.719 -0.96,-1.719 -1.13,0 -9.88,0.578 -20.14,0.578 -11.77,0 -19.74,-0.578 -20.89,-0.578 -0.77,0 -1.14,0.387 -1.14,1.898 v 3.239 c 0,1.32 0.37,1.711 2.09,1.711 h 7.4 c 2.86,0 4.18,1.14 4.18,3.601 0.2,6.27 0.2,12.93 0.2,22.801 v 17.859"
         style="fill:#ffffff;fill-opacity:1;fill-rule:nonzero;stroke:none"
         id="path70" /><path
         d="m 1789.09,406.719 c 0,4.75 4.01,9.871 11.6,9.871 6.64,0 9.87,-5.121 9.87,-9.301 0,-4.937 -3.42,-10.437 -11.02,-10.437 -4.18,0 -10.45,3.777 -10.45,9.867 z m 8.56,-57.938 c 0,6.457 -1.14,9.879 -10.65,11.399 -1.33,0.179 -1.7,0.57 -1.7,1.32 v 1.711 c 0,0.57 0.37,0.961 1.33,1.328 6.08,2.289 13.3,5.32 20.51,9.32 1.52,0.762 2.48,1.129 3.61,1.129 0.96,0 1.13,-0.949 0.96,-2.277 -0.39,-3.231 -0.39,-15.199 -0.39,-30.961 v -20.711 c 0,-7.41 0,-14.25 0.19,-16.34 0.37,-3.609 0.96,-4.929 3.05,-4.929 h 8.73 c 1.52,0 1.9,-0.579 1.9,-1.711 v -3.239 c 0,-1.32 -0.38,-1.898 -1.7,-1.898 -1.53,0 -10.26,0.578 -18.25,0.578 -11.01,0 -18.41,-0.578 -20.5,-0.578 -0.96,0 -1.53,0.387 -1.53,1.519 v 3.809 c 0,1.129 0.57,1.52 1.9,1.52 h 9.31 c 2.09,0 2.86,0.761 3.03,3.789 0.2,5.711 0.2,11.589 0.2,17.293 v 27.929"
         style="fill:#ffffff;fill-opacity:1;fill-rule:nonzero;stroke:none"
         id="path72" /><path
         d="m 1914.11,303.762 c 0,-3.051 1.7,-3.992 4.18,-3.992 h 6.08 c 1.71,0 2.09,-0.579 2.09,-1.711 v -3.047 c 0,-1.332 -0.38,-2.09 -1.53,-2.09 -1.33,0 -7.21,0.578 -18.05,0.578 -9.68,0 -15.76,-0.578 -17.09,-0.578 -1.15,0 -1.52,0.578 -1.52,2.09 v 3.047 c 0,1.32 0.57,1.711 2.46,1.711 h 5.51 c 2.09,0 3.61,0.941 3.81,4.359 0.19,4.941 0.37,11.019 0.37,15.961 v 25.082 c 0,7.59 0,13.098 -5.51,17.098 -4.55,3.41 -9.12,3.41 -13.87,3.41 -3.02,0 -9.68,-1.321 -15.39,-7.41 -3.78,-4.18 -4.35,-9.301 -4.35,-12.911 v -39.32 c 0,-5.129 0.57,-6.269 4.55,-6.269 h 4.75 c 1.52,0 1.91,-0.579 1.91,-1.911 v -3.218 c 0,-1.141 -0.39,-1.719 -1.33,-1.719 -1.35,0 -6.46,0.578 -16.54,0.578 -9.69,0 -15.76,-0.578 -16.9,-0.578 -0.95,0 -1.34,0.578 -1.34,1.719 v 3.418 c 0,1.132 0.39,1.711 1.91,1.711 h 5.51 c 2.46,0 3.79,0.57 3.79,3.789 v 44.461 c 0,5.699 -3.03,8.921 -7.78,11.21 l -1.52,0.758 c -1.33,0.571 -1.52,1.133 -1.52,1.703 v 0.957 c 0,0.942 0.76,1.524 1.7,1.891 l 16.34,9.121 c 1.53,0.762 2.66,1.328 3.42,1.328 0.96,0 1.33,-0.758 1.53,-2.277 l 1.32,-11.59 h 0.37 c 5.53,6.84 16.55,13.867 26.04,13.867 5.7,0 11.58,-1.129 16.15,-4.179 5.71,-3.789 10.45,-13.297 10.45,-18.047 v -49"
         style="fill:#ffffff;fill-opacity:1;fill-rule:nonzero;stroke:none"
         id="path74" /><path
         d="m 1987.45,348.398 c 0,8.364 -1.7,13.293 -5.12,17.102 -2.48,2.461 -6.27,4.18 -9.12,4.18 -4.37,0 -8.92,-0.758 -13.49,-5.321 -6.08,-6.461 -6.84,-15.199 -6.84,-22.418 0,-6.461 2.09,-12.351 6.08,-16.531 3.41,-3.23 6.83,-4.75 11.4,-4.75 12.91,0 17.09,15.781 17.09,27.738 z m 17.68,-80.929 c 0,11.211 -8.56,19.761 -27.56,18.429 l -18.22,-1.339 c -5.9,-1.508 -15.2,-7.969 -15.2,-18.231 0,-4.746 3.59,-10.437 7.4,-13.109 6.27,-4.36 13.11,-5.321 26.6,-5.321 7.02,0 27.91,4.942 26.98,19.571 z m -62.7,-19.571 c -6.83,4.18 -9.69,9.122 -9.69,15.391 0,10.652 10.82,18.813 19.95,22.793 v 0.77 c -7.97,1.699 -12.72,7.589 -12.72,13.296 0,9.122 10.43,15.571 17.09,18.043 v 0.379 c -7.4,3.239 -17.68,11.969 -17.68,28.879 0,12.34 11.02,27.539 32.5,27.539 14.44,0 22.04,-8.726 23.93,-11.019 5.14,3.621 11.58,7.422 17.85,7.422 6.27,0 9.32,-4.18 8.95,-7.981 0,-3.621 -3.05,-7.031 -7.42,-7.031 -3.23,0 -5.12,1.519 -6.65,2.851 -1.15,0.758 -2.48,1.711 -3.98,1.711 -1.35,0 -3.61,0 -6.09,-1.152 1.52,-3.789 2.85,-7.969 2.85,-14.43 0,-7.41 -2.09,-14.629 -7.03,-20.519 -4.94,-5.512 -15.76,-9.5 -22.03,-9.5 -4.18,0 -6.84,0.199 -9.69,0.961 -3.81,-1.52 -10.08,-5.332 -10.08,-10.653 0,-7.789 9.51,-7.207 22.23,-6.457 15.58,0.758 25.07,-0.941 32.67,-6.839 8.19,-6.071 9.12,-13.672 9.32,-18.231 0,-8.93 -3.22,-16.34 -12.74,-23.371 -4.94,-3.609 -16.32,-8.922 -32.48,-8.922 -9.12,0 -19.94,0.942 -29.06,6.07"
         style="fill:#ffffff;fill-opacity:1;fill-rule:nonzero;stroke:none"
         id="path76" /></g></g></svg>
