<svg xmlns="http://www.w3.org/2000/svg" data-name="Layer 1" viewBox="0 0 90 58.42" class="logo"><path d="M79.1 37.54 78 39a16.13 16.13 0 0 1-13.09 6.53 16.43 16.43 0 0 1-15.3-11.28c-.06-.23-.14-.44-.2-.66a15.57 15.57 0 0 1-.64-4.38 16.46 16.46 0 0 1 16.16-16.32 15.27 15.27 0 0 1 12.88 6.82l1.09 1.57L90 13l-1.2-1.51A29.93 29.93 0 0 0 64.93 0C50.21 0 38.28 9.79 35.5 23.19c-2.62-.57-5.3-.91-7.73-1.21C20 21 16.28 20.2 16.28 17.16c0-2.63 2.85-5.28 9.21-5.28a16.05 16.05 0 0 1 9.15 2.65 32.41 32.41 0 0 1 8.11-10.26A32 32 0 0 0 26 0C12.54 0 2.39 7.59 2.39 17.66c0 13.93 12.9 15.66 22.32 16.92 7.18 1 11.58 1.71 11.58 4.92 0 4.36-5.55 6-10.72 6A19.86 19.86 0 0 1 11.34 39l-1.23-1.31L0 46.77l1.31 1.37a33.09 33.09 0 0 0 23.84 10.28c7.33 0 14.93-2.49 19.8-7.23a30.51 30.51 0 0 0 20 7.23A29.93 29.93 0 0 0 88.8 46.93l1.2-1.51Z" style="fill:#e8499f"/></svg>